PathFileType	4	(X/Y/Z)	C:\Users\Basilio\Documents\Thesis Gigler\squatting_fais\c3dfiles\075\SLS_back_pre5\markers_experimental.trc
DataRate	CameraRate	NumFrames	NumMarkers	Units	OrigDataRate	OrigDataStartFrame	OrigNumFrames
200.000000	200.000000	4	61	mm	200.000000	161	1291
Frame#	Time	FHD			LBHD			C7			T10			CLAV			LSHO			LUUPA			LMUPA			LDUPA			LLEP			LMEP			LRAD			LUL			LRFIN			RSHO			RUPA1			RMUPA			RDUPA			RLEP			RMEP			RRAD			RUL			RUFIN			LASI			RASI			USACR			LSACR			RSACR			LTHI1			LTHI2			LTHI3			LTHI4			LLFC			LMFC			LTIB1			LTIB2			LTIB3			LTIB4			LLMAL			LMMAL			LHEE			LMT1			LMT2			LMT5			RTHI			RTHI2			RTHI3			RTHI4			RLFC			RMFC			RTIB1			RTIB2			RTIB3			RTIB4			RLMAL			RMMAL			RHEE			RMT1			RMT2			RMT5			RBHD			
		X1	Y1	Z1	X2	Y2	Z2	X3	Y3	Z3	X4	Y4	Z4	X5	Y5	Z5	X6	Y6	Z6	X7	Y7	Z7	X8	Y8	Z8	X9	Y9	Z9	X10	Y10	Z10	X11	Y11	Z11	X12	Y12	Z12	X13	Y13	Z13	X14	Y14	Z14	X15	Y15	Z15	X16	Y16	Z16	X17	Y17	Z17	X18	Y18	Z18	X19	Y19	Z19	X20	Y20	Z20	X21	Y21	Z21	X22	Y22	Z22	X23	Y23	Z23	X24	Y24	Z24	X25	Y25	Z25	X26	Y26	Z26	X27	Y27	Z27	X28	Y28	Z28	X29	Y29	Z29	X30	Y30	Z30	X31	Y31	Z31	X32	Y32	Z32	X33	Y33	Z33	X34	Y34	Z34	X35	Y35	Z35	X36	Y36	Z36	X37	Y37	Z37	X38	Y38	Z38	X39	Y39	Z39	X40	Y40	Z40	X41	Y41	Z41	X42	Y42	Z42	X43	Y43	Z43	X44	Y44	Z44	X45	Y45	Z45	X46	Y46	Z46	X47	Y47	Z47	X48	Y48	Z48	X49	Y49	Z49	X50	Y50	Z50	X51	Y51	Z51	X52	Y52	Z52	X53	Y53	Z53	X54	Y54	Z54	X55	Y55	Z55	X56	Y56	Z56	X57	Y57	Z57	X58	Y58	Z58	X59	Y59	Z59	X60	Y60	Z60	X61	Y61	Z61	

162	0.805	-249.0929718017579	1711.00390625	-831.0529785156252	-388.9096069335939	1593.82861328125	-908.5698852539065	-429.3426208496095	1475.605590820313	-851.761901855469	-435.0862426757814	1151.128173828125	-855.2901000976565	-285.1883850097657	1418.846557617188	-838.5715332031252	-307.9152221679688	1455.028564453125	-991.9168701171877	-221.2466583251954	1286.638427734375	-1108.765380859375	-179.3000183105469	1288.250610351563	-1082.166748046875	-169.6687622070313	1240.968017578125	-1119.158325195313	-102.0580139160157	1186.182861328125	-1113.76220703125	-161.5349731445313	1131.91015625	-1066.997680664063	nan	nan	nan	64.15966033935548	1143.321044921875	-926.662048339844	56.73495483398439	1187.978637695313	-829.1423339843752	-333.0955200195313	1443.833251953125	-686.4516601562501	-267.9817199707032	1277.509033203125	-557.6537475585939	-221.1847839355469	1276.131713867188	-572.7105712890626	-221.8539581298829	1228.590454101563	-534.6752319335939	-165.3484344482422	1184.030029296875	-525.5462646484376	-192.6848602294922	1116.605102539063	-570.1834106445314	-2.592410326004029	1193.47900390625	-750.0660400390626	33.73458480834962	1169.462646484375	-687.1138305664064	76.5065155029297	1201.396484375	-791.977966308594	-263.3655395507813	985.0677490234377	-982.4062500000002	-263.3609313964844	992.805603027344	-728.0309448242189	-423.654998779297	1053.435424804688	-858.5546875000002	-427.7657165527345	1021.357604980469	-886.0032958984377	-428.3995056152345	1022.8603515625	-828.4681396484377	-293.4617004394532	745.5402832031251	-1064.375244140625	-257.9252319335938	668.6268920898439	-1068.111083984375	-212.2232666015626	674.9699096679689	-1048.0986328125	-282.4566040039063	613.9379882812501	-1064.159912109375	-283.3757934570313	507.5878906250001	-1064.78515625	-247.7784423828126	482.1224060058595	-940.1038208007815	-239.3385772705079	379.9935302734376	-1040.293823242188	-300.1264648437501	350.8667907714844	-1094.263916015625	-260.8417053222657	338.7105712890626	-1074.306884765625	-274.1693420410157	257.3049011230469	-1053.046997070313	-363.0169067382813	125.8011779785157	-1085.500244140625	-335.3427124023438	132.0348815917969	-1003.49609375	-422.8276367187501	93.57586669921876	-1048.58740234375	-219.6692352294922	51.57065200805665	-1012.541870117188	-213.3588256835938	53.92663574218751	-1060.842895507813	-251.1372680664063	41.76358032226563	-1114.970092773438	-316.6147460937501	785.1588134765627	-667.0827636718751	-275.5187072753907	734.2815551757814	-671.3572387695314	-244.6799621582032	742.1948242187501	-682.6057739257814	-299.0856933593751	652.3284912109376	-683.1130371093751	-307.4812622070313	498.7554321289064	-716.2764282226564	-275.4218750000001	496.056854248047	-841.2378540039065	-272.7785339355469	351.0099487304688	-790.9470214843752	-327.8846435546876	276.5687255859376	-735.0021972656251	-292.9314880371094	268.6998291015626	-768.7696533203127	-311.1573181152344	228.178207397461	-806.4080200195315	-390.8257751464845	117.0801391601563	-771.0300903320315	-363.5536499023438	139.6813507080078	-852.4837646484377	-449.1977539062501	98.87616729736331	-826.145690917969	-246.0630187988282	55.13711547851564	-837.215515136719	-245.1447143554688	55.69175720214845	-794.5948486328127	-282.6990966796876	36.74511718750001	-742.0592041015626	nan	nan	nan	
163	0.8100000000000001	-249.2440185546876	1711.068603515625	-830.2314453125002	-389.0747375488282	1593.913208007813	-907.643493652344	-429.4790039062501	1475.651245117188	-850.7736816406252	-435.2075500488282	1151.309692382813	-854.3323974609377	-285.3041076660157	1418.80078125	-837.8560180664065	-308.1473999023438	1455.122924804688	-990.939880371094	-220.4117431640626	1287.301513671875	-1107.291748046875	-178.935546875	1289.3818359375	-1081.07763671875	-168.6131286621094	1241.930419921875	-1117.69189453125	-100.7201385498047	1187.647583007813	-1112.232666015625	-159.7023010253907	1133.137573242188	-1065.18896484375	nan	nan	nan	66.28859710693361	1146.037353515625	-925.6911621093752	59.19220352172853	1190.81689453125	-828.074645996094	-332.9207458496094	1443.898803710938	-685.7099609375001	-266.6737976074219	1278.476318359375	-556.8442993164064	-219.9835357666016	1277.533203125	-572.1538085937501	-220.1186676025391	1229.954467773438	-533.9946289062501	-163.16064453125	1185.944213867188	-524.7156372070314	-190.1231231689453	1118.175903320313	-569.1650390625001	-0.5122734308242799	1196.037475585938	-749.5570678710939	36.13549423217774	1172.0283203125	-686.0046997070314	78.80113220214845	1204.260498046875	-790.9659423828127	-263.8309936523438	985.220886230469	-981.6370239257815	-263.7333984375001	992.6091918945315	-727.3060913085939	-423.9417114257814	1053.414794921875	-857.8782958984377	-428.2584838867189	1021.390808105469	-885.1865844726565	-428.6513977050782	1022.878234863281	-827.8343505859377	-294.1670837402344	745.8937988281251	-1063.996948242188	-257.6772460937501	668.9850463867189	-1067.8642578125	-212.0480651855469	675.2819824218751	-1047.74853515625	-282.2756347656251	614.1857299804689	-1063.923217773438	-282.8966064453126	507.810760498047	-1064.664916992188	-247.1659393310547	482.3086547851564	-939.9859008789065	-238.6923980712891	380.2228393554688	-1040.246215820313	-299.6181335449219	351.2922668457032	-1094.1865234375	-260.1165161132813	339.1107482910157	-1074.305419921875	-273.6988525390626	257.6252746582032	-1053.202026367188	-362.8160705566407	126.0520477294922	-1085.729614257813	-334.9972839355469	132.4936981201172	-1003.723022460938	-422.5917053222657	94.1071243286133	-1048.772338867188	-219.5614776611329	51.62622833251955	-1012.550537109375	-213.278793334961	53.90806961059572	-1060.859375	-251.1299743652344	41.72750854492188	-1114.991577148438	-316.9081420898438	785.031433105469	-666.5808105468751	-275.7142028808594	734.1146240234376	-670.9392089843751	-244.9049987792969	742.0331420898439	-682.1881103515626	-299.2182617187501	652.2633056640626	-682.6856689453126	-307.5511474609376	498.7002868652345	-716.0314941406251	-275.5275268554688	496.0906066894532	-840.9905395507815	-272.7864379882813	350.9927978515626	-790.8040771484377	-327.9129943847657	276.4638671875001	-734.9458618164064	-292.6564025878907	268.5998229980469	-768.5150146484377	-311.1844177246094	228.2230987548829	-806.3753051757815	-390.8201293945314	117.080307006836	-771.0362548828127	-364.3998107910157	139.8399200439453	-852.5899658203127	-449.1808471679689	98.86677551269534	-826.1608886718752	-245.9862670898438	55.10200119018556	-837.1671142578127	-245.1330871582032	55.69559860229494	-794.6272583007815	-282.7290344238282	36.73020553588868	-742.0495605468751	nan	nan	nan	
164	0.8150000000000001	-249.2374267578126	1711.04833984375	-829.3199462890627	-389.3250427246095	1593.737915039063	-906.5166015625002	-429.5160217285157	1475.73583984375	-849.9093017578127	-435.4511718750001	1151.40087890625	-853.445007324219	-285.3250427246094	1418.708740234375	-837.0315551757815	-308.2542419433594	1455.264892578125	-989.893981933594	-219.3329772949219	1287.75390625	-1106.069091796875	-177.8993377685547	1290.351196289063	-1079.431030273438	-167.7369995117188	1243.13330078125	-1116.2783203125	-99.40985107421878	1189.367797851563	-1110.831176757813	-157.7667846679688	1134.367065429688	-1063.55224609375	nan	nan	nan	68.50498962402345	1148.63525390625	-924.8387451171877	61.2304039001465	1193.477661132813	-827.0848388671877	-332.8038330078126	1444.075073242188	-684.9716186523439	-265.3742980957032	1279.353515625	-556.2359619140626	-218.6555938720704	1278.748657226563	-571.4815063476564	-218.4282836914063	1231.309326171875	-533.1109619140626	-161.1898193359375	1187.593994140625	-524.0038452148439	-187.6680908203125	1119.776245117188	-568.2694091796876	1.434008955955506	1198.65185546875	-748.6432495117189	38.47520828247071	1174.598388671875	-685.0974731445314	81.17060852050783	1207.001342773438	-789.9566650390627	-264.2446899414063	985.4007568359377	-980.9602661132815	-264.0749816894532	992.568298339844	-726.5581665039064	-424.2778320312501	1053.44287109375	-857.110290527344	-428.7156372070314	1021.470520019531	-884.4585571289065	-429.0505676269532	1022.856689453125	-827.0078125000002	-293.4660949707032	745.8967285156251	-1063.4814453125	-257.4644775390626	669.2628173828126	-1067.59619140625	-211.8709564208985	675.7794799804689	-1047.792358398438	-281.9801635742188	614.3654174804689	-1063.650756835938	-282.2225341796876	508.045623779297	-1064.55908203125	-246.6336822509766	482.4472045898439	-939.8215332031252	-237.7210693359376	380.4113769531251	-1039.802490234375	-299.0711364746094	351.7011413574219	-1094.127319335938	-259.6980895996094	339.4071655273438	-1074.39453125	-273.3022155761719	257.8932495117188	-1053.347290039063	-361.9444274902344	126.1217880249024	-1085.869750976563	-334.7927551269532	132.8505249023438	-1003.901977539063	-422.0283508300782	94.34814453125001	-1048.995849609375	-219.564193725586	51.68958663940431	-1012.661437988281	-213.1716613769532	53.90814208984376	-1060.865234375	-251.0330810546876	41.71283340454102	-1115.0205078125	-317.1656188964844	784.9644165039065	-666.0394897460939	-275.8918762207032	734.1065673828126	-670.4207153320314	-245.2318267822266	741.8328857421876	-681.7524414062501	-299.4191894531251	652.2208862304689	-682.3274536132814	-307.6027221679688	498.682586669922	-715.6630859375001	-275.5173034667969	496.1196899414064	-840.719665527344	-272.8093872070313	351.0232238769532	-790.678405761719	-327.8808898925782	276.4511718750001	-734.8572387695314	-292.9605712890626	268.6784667968751	-768.6503906250002	-311.2180175781251	228.2161407470704	-806.2510375976565	-390.8208007812501	117.0767974853516	-771.0148925781252	-363.5093383789063	139.6030731201172	-852.4455566406252	-449.2069091796876	98.8627853393555	-826.1354980468752	-246.0095367431641	55.03336334228517	-837.2507934570315	-245.1134185791016	55.71445083618165	-794.6008911132815	-282.8146362304688	36.70232772827149	-742.0255126953126	nan	nan	nan	
165	0.8200000000000001	-249.3683319091797	1711.013916015625	-828.5418090820315	-389.5811767578126	1593.635498046875	-905.7630615234377	-429.5358276367189	1475.67138671875	-848.9138793945315	-435.8300781250001	1151.381103515625	-852.567321777344	-285.3547058105469	1418.699829101563	-836.1785888671877	-307.8313903808594	1455.31787109375	-988.4702758789065	-219.3075561523438	1288.729370117188	-1104.7353515625	-177.1644897460938	1291.388305664063	-1078.245971679688	-166.2996063232422	1244.0966796875	-1114.726196289063	-97.79589843750003	1190.872314453125	-1109.328002929688	-155.8955993652344	1135.748291015625	-1061.870361328125	nan	nan	nan	71.1062698364258	1151.294189453125	-923.736267089844	63.71973419189455	1195.957275390625	-826.124206542969	-332.7723388671876	1444.235107421875	-684.4924316406251	-264.1144104003907	1280.3330078125	-555.4006958007814	-217.4136810302735	1279.897583007813	-570.7760009765626	-216.7645874023438	1232.611328125	-532.3932495117189	-159.1845245361328	1189.456787109375	-523.3126220703126	-185.163818359375	1121.285400390625	-567.4951782226564	4.321396827697755	1200.538696289063	-747.2678222656251	40.84436416625977	1177.073852539063	-684.1502685546876	83.29553985595705	1209.416748046875	-789.0562744140627	-264.5971069335938	985.6216430664065	-980.358825683594	-264.4352416992188	992.540710449219	-725.8880615234376	-424.7729797363282	1053.421508789063	-856.322448730469	-429.0364074707032	1021.432373046875	-883.841003417969	-429.427703857422	1022.855529785156	-826.303649902344	-293.4164733886719	746.1472167968751	-1063.163452148438	-257.2830505371094	669.5161132812501	-1067.274658203125	-211.7835693359376	676.1478881835939	-1047.387329101563	-281.6296997070313	614.4943237304689	-1063.370239257813	-281.5288085937501	508.2894592285157	-1064.372192382813	-246.259750366211	482.5240478515626	-939.6560058593752	-237.0788726806641	380.6895141601563	-1039.755493164063	-298.5275573730469	352.1954650878907	-1094.159057617188	-259.3408203125001	339.7172241210938	-1074.29052734375	-272.9377441406251	258.1378173828126	-1053.489135742188	-361.6434936523438	126.567497253418	-1086.095581054688	-334.5685424804688	133.21728515625	-1004.090087890625	-421.8965148925782	94.85859680175783	-1049.185546875	-219.465072631836	51.7516326904297	-1012.738708496094	-213.0768585205079	53.82141494750978	-1060.947387695313	-251.0058593750001	41.71644973754884	-1115.073974609375	-317.4443969726563	784.8322753906252	-665.5973510742189	-276.0722045898438	734.0776367187501	-669.7484741210939	-245.4330444335938	741.7705078125001	-681.1711425781251	-299.5744018554688	652.1608276367189	-681.9556884765626	-307.6519470214844	498.6619567871095	-715.3707885742189	-275.5404968261719	496.1611633300782	-840.489440917969	-272.8706665039063	351.0352783203126	-790.510437011719	-327.8772277832032	276.3869323730469	-734.7828369140626	-292.9831848144532	268.7046813964844	-768.566589355469	-311.1451110839844	228.1699981689454	-806.2166748046877	-390.8523559570314	117.0704193115235	-771.038513183594	-363.5312194824219	139.6169586181641	-852.4061279296877	-449.164520263672	98.85384368896487	-826.164001464844	-246.1030426025391	55.08370208740236	-837.2812500000002	-245.1194763183594	55.72496032714845	-794.6135864257815	-282.9229736328126	36.68768692016602	-741.9916381835939	nan	nan	nan	
